<?xml version="1.0" encoding="UTF-8" standalone="no"?>
<!-- Created with Inkscape (http://www.inkscape.org/) -->

<svg
   width="210mm"
   height="297mm"
   viewBox="0 0 210 297"
   version="1.1"
   id="svg5"
   inkscape:version="1.1.1 (3bf5ae0d25, 2021-09-20)"
   sodipodi:docname="LogoFL.svg"
   xmlns:inkscape="http://www.inkscape.org/namespaces/inkscape"
   xmlns:sodipodi="http://sodipodi.sourceforge.net/DTD/sodipodi-0.dtd"
   xmlns="http://www.w3.org/2000/svg"
   xmlns:svg="http://www.w3.org/2000/svg">
  <sodipodi:namedview
     id="namedview7"
     pagecolor="#ffffff"
     bordercolor="#666666"
     borderopacity="1.0"
     inkscape:pageshadow="2"
     inkscape:pageopacity="0.0"
     inkscape:pagecheckerboard="0"
     inkscape:document-units="mm"
     showgrid="false"
     inkscape:zoom="0.24409372"
     inkscape:cx="-133.14558"
     inkscape:cy="538.72751"
     inkscape:window-width="1366"
     inkscape:window-height="705"
     inkscape:window-x="-8"
     inkscape:window-y="-8"
     inkscape:window-maximized="1"
     inkscape:current-layer="layer1" />
  <defs
     id="defs2" />
  <g
     inkscape:label="Camada 1"
     inkscape:groupmode="layer"
     id="layer1">
    <path
       style="fill:#252a7c;fill-opacity:1;stroke-width:0.512098"
       d=""
       id="path4822"
       transform="scale(0.26458333)" />
    <path
       style="fill:#252a7c;fill-opacity:1;stroke-width:0.512098"
       d=""
       id="path4861"
       transform="scale(0.26458333)" />
    <path
       style="fill:#252a7c;fill-opacity:1;stroke-width:0.512098"
       d=""
       id="path4939"
       transform="scale(0.26458333)" />
    <path
       style="fill:#252a7c;fill-opacity:1;stroke-width:0.512098"
       d=""
       id="path5563"
       transform="scale(0.26458333)" />
    <g
       id="g23062"
       transform="matrix(0.81665764,0,0,0.81665764,187.94577,78.735418)">
      <path
         style="display:inline;fill:#262a7b;stroke:none;stroke-width:0.264583"
         d="m -102.63077,-90.700822 c -6.45398,0.87855 -10.79844,4.31731 -15.875,8.12305 -4.31112,3.23199 -8.65346,6.424 -12.96458,9.65729 -19.4482,14.58608 -39.02472,29.00323 -58.47292,43.58918 -4.92858,3.69649 -9.88861,7.35118 -14.81666,11.04741 -4.56542,3.42397 -8.66466,6.25634 -10.66316,11.8726502 -1.24638,3.5025499 -0.97851,7.19427978 -0.97851,10.8479098 v 16.40417 57.41458 46.302082 c 0,7.95311 -0.80593,16.03719 5.33678,22.17976 5.62388,5.62398 12.73003,5.33691 20.06322,5.33691 h 33.60208 c 35.66107,0 71.362623,0.22463 107.044075,0.22463 l 33.44968,0.0399 h 10.5833296 c 1.89839,0 3.94705,0.21432 5.82083001,-0.12276 C 7.1131066,150.8454 12.992947,144.01306 13.974017,136.4637 c 0.313,-2.41035 0.0765,-4.97945 0.0765,-7.40833 V 115.29704 73.228288 17.665788 4.436618 c 0,-4.45531002 0.10107,-8.6066299 -1.96824,-12.6999998 -2.07592,-4.1063302 -5.2776404,-6.1391202 -8.8796824,-8.7074302 -3.76527999,-2.68447 -7.4131,-5.55017 -11.1125,-8.32459 -15.4442596,-11.58346 -30.8572896,-23.20925 -46.3020796,-34.79271 -10.065282,-7.54909 -20.097222,-15.14004 -30.162502,-22.68894 -2.31669,-1.73749 -4.40849,-3.85707 -6.87917,-5.37231 -3.166,-1.94165 -7.67953,-3.05488 -11.377083,-2.55151"
         id="path22671" />
      <path
         style="fill:#ffffff;stroke:none;stroke-width:0.264583"
         d="m -70.616157,14.226208 v 91.016662 l 20.108342,-11.031546 5.82083,-3.19484 2.75087,-1.75181 0.42413,-3.600966 v -7.14375 l 0.15954,-3.07473 1.69281,-1.34884 4.23306,-2.41591 11.37709,-6.50108 6.61458,-3.59278 v 28.574996 7.937501 c 0,1.04484 0.29422,2.635525 -0.15954,3.600985 -0.62786,1.33482 -3.36524,2.16112 -4.60296,2.83078 -4.40478,2.38257 -8.78125,4.82891 -13.22917,7.13025 -4.09522,2.11905 -8.0473,4.53523 -12.17083,6.59686 -9.59564,4.79795 -19.569112,9.03896 -29.368752,13.40644 -3.36656,1.50045 -6.70454,3.07816 -10.05416,4.61645 -2.65854,1.22052 -4.69847,2.29949 -7.67292,2.29949 V 14.226258 h 24.07708"
         id="path22677" />
      <path
         style="fill:#ffffff;stroke:none;stroke-width:0.264583"
         d="m -100.24949,-56.417542 6.614583,5.21758 12.96459,9.07653 43.920832,30.22997 13.49375,9.6414201 3.96875,2.79399988 1.84467,1.56210002 0.27199,2.59715 v 5.82083 20.90208 c -3.27236,-1.62798 -6.27089,-4.20899 -9.26041,-6.3119 -4.26905,-3.00302 -8.67992,-5.84438 -12.96459,-8.84343 -12.77355,-8.9410598 -25.636532,-17.7561898 -38.364582,-26.76102 -5.18477,-3.66844 -10.40712,-7.28397 -15.61041,-10.92623 -1.5883,-1.11178 -3.16521,-2.24049 -4.7625,-3.3393 -0.72549,-0.49901 -1.52215,-1.28562 -2.381253,-1.53115 -1.61026,-0.46037 -4.29498,2.26986 -5.55625,3.12156 -5.19192,3.50599 -10.18964,7.29588 -15.34584,10.845 -9.39165,6.4640402 -18.65259,13.11750998 -28.04583,19.5791702 -2.74637,1.88912 -5.47132,3.8089398 -8.20208,5.7205498 -1.13983,0.79799 -2.99191,1.64465 -3.69676,2.88502 -0.38603,0.67919 -0.27173,1.58274 -0.27199,2.33257 v 5.02708 17.99167 h 51.59375 v 24.07708 h -51.59375 v 50.270832 l -5.29167,-2.29949 -11.90625,-5.60123 -4.23333,-2.04126 -2.37384,-1.33906 -0.27199,-1.94812 V 97.834535 81.165788 24.280368 l -0.26459,-15.3458298 0.27199,-5.6978002 2.10926,-1.71053 4.23334,-2.9477298 16.13958,-11.2656902 43.92083,-30.77263 12.17083,-8.49709 6.87917,-4.46061"
         id="path22675" />
      <text
         xml:space="preserve"
         style="font-style:normal;font-variant:normal;font-weight:bold;font-stretch:normal;font-size:16.571px;line-height:1.25;font-family:Arial;-inkscape-font-specification:'Arial Bold';fill:#262a7b;fill-opacity:1;stroke:none;stroke-width:0.414277"
         x="-216.24335"
         y="170.25294"
         id="text11357"><tspan
           sodipodi:role="line"
           id="tspan11355"
           style="font-style:normal;font-variant:normal;font-weight:bold;font-stretch:normal;font-family:Arial;-inkscape-font-specification:'Arial Bold';fill:#262a7b;fill-opacity:1;stroke-width:0.414277"
           x="-216.24335"
           y="170.25294">EEM FRANCISCA LINHARES</tspan></text>
    </g>
  </g>
</svg>
